<?xml version="1.0" encoding="UTF-8" standalone="no"?>
<!-- Created with Inkscape (http://www.inkscape.org/) -->

<svg
   version="1.1"
   id="svg1"
   width="584.14246"
   height="750"
   viewBox="0 0 747.70234 960"
   sodipodi:docname="Chirayu-Original-3.svg"
   inkscape:version="1.4.2 (f4327f4, 2025-05-13)"
   inkscape:export-filename="Chirayu-Original.png"
   inkscape:export-xdpi="336.57544"
   inkscape:export-ydpi="336.57544"
   xmlns:inkscape="http://www.inkscape.org/namespaces/inkscape"
   xmlns:sodipodi="http://sodipodi.sourceforge.net/DTD/sodipodi-0.dtd"
   xmlns="http://www.w3.org/2000/svg"
   xmlns:svg="http://www.w3.org/2000/svg">
  <defs
     id="defs1" />
  <sodipodi:namedview
     id="namedview1"
     pagecolor="#ffffff"
     bordercolor="#000000"
     borderopacity="0.25"
     inkscape:showpageshadow="true"
     inkscape:pageopacity="0.0"
     inkscape:pagecheckerboard="0"
     inkscape:deskcolor="#d1d1d1"
     inkscape:zoom="0.32"
     inkscape:cx="1798.4375"
     inkscape:cy="1042.1875"
     inkscape:window-width="1920"
     inkscape:window-height="991"
     inkscape:window-x="-9"
     inkscape:window-y="-9"
     inkscape:window-maximized="1"
     inkscape:current-layer="g1"
     inkscape:export-bgcolor="#ffffff00">
    <inkscape:page
       x="0"
       y="0"
       width="747.70233"
       height="960"
       id="page2"
       margin="0"
       bleed="0" />
  </sodipodi:namedview>
  <g
     inkscape:groupmode="layer"
     inkscape:label="Image"
     id="g1"
     transform="translate(-1635.5169,-798.50823)">
    <path
       style="fill:#a0892c"
       d="m 2203.1078,1708.3734 c -2.7582,-0.9333 -6.7474,-6.6749 -12.1995,-17.5587 -1.4563,-2.9073 -4.2595,-7.0698 -6.2292,-9.25 -3.259,-3.6074 -4.0289,-3.9641 -8.5547,-3.9641 h -4.9734 l 0.3398,15.5009 0.3397,15.5008 -4.5,-5e-4 -4.5,-6e-4 v -30.5593 -30.5593 l 5,0.6721 c 5.8835,0.7908 6.1524,0.9549 4.6098,2.8136 -0.7927,0.9551 -1.0831,5.2755 -0.8925,13.2741 l 0.2827,11.8582 6.5,-0.344 c 5.3837,-0.2849 6.9876,-0.8001 9.3393,-3 4.2482,-3.974 5.8467,-7.6476 5.0879,-11.6926 -1.1632,-6.2 -4.7466,-9.3843 -12.9272,-11.4874 -2.5578,-0.6576 -2.2202,-0.7864 2.2898,-0.8736 8.6858,-0.1681 16.1675,4.8737 17.7198,11.9411 1.5351,6.9895 -4.4767,14.9565 -11.2859,14.9565 h -3.6229 l 5.5016,4.9035 c 4.162,3.7096 6.7063,7.257 10.4496,14.5697 4.1173,8.0434 5.4097,9.7594 7.698,10.2215 1.5125,0.3054 2.75,0.905 2.75,1.3325 0,1.5234 -5.4561,2.6817 -8.2227,1.7456 z m -450.2977,-0.7397 c 0.3287,-0.5319 0.5976,-14.1444 0.5977,-30.25 l 2e-4,-29.2831 5.044,0.3521 c 4.5872,0.3202 4.9956,0.5466 4.5088,2.5 -0.7335,2.943 -0.9976,24.6139 -0.3084,25.3031 0.3054,0.3055 3.3839,0.2271 6.841,-0.1741 5.2276,-0.6067 6.8269,-1.2709 9.5024,-3.9464 7.6009,-7.6009 4.5765,-18.1916 -6.3026,-22.0699 l -3.8627,-1.377 4.5,-0.022 c 5.2139,-0.025 11.5104,2.5947 14.7825,6.1513 1.6325,1.7744 2.3436,3.8767 2.4969,7.3819 0.2581,5.8983 -2.3993,10.2809 -7.7829,12.8355 -4.0232,1.9092 -3.7781,3.5654 0.5277,3.5654 3.3679,0 9.2575,4.7102 11.6326,9.3032 2.9996,5.8006 -0.045,12.8972 -7.4827,17.4417 -3.0253,1.8484 -4.9986,2.2198 -11.1741,2.103 l -7.5,-0.1419 5.7448,-0.6145 c 4.8209,-0.5157 6.3122,-1.1818 9.2721,-4.1418 4.8307,-4.8307 5.7923,-11.8071 2.326,-16.8752 -3.6288,-5.3057 -10.0472,-8.2191 -17.3288,-7.8661 l -6.0141,0.2917 v 13.9549 13.9549 l 2.5,0.6053 c 2.3733,0.5745 2.3289,0.6402 -0.875,1.2951 -5.0164,1.0253 -12.3426,0.851 -11.6454,-0.2771 z m 105.3615,-14.6014 c 0.1875,-8.5635 0.094,-16.5513 -0.2071,-17.7508 -0.5498,-2.1874 -13.0623,-20.3252 -16.7641,-24.3007 -1.9704,-2.116 -1.9698,-2.1208 0.3281,-2.7363 2.9852,-0.7996 9.1937,-0.8145 11.2457,-0.027 1.229,0.4716 1.342,0.9364 0.4804,1.9747 -1.4695,1.7706 1.3238,7.4826 8.2087,16.7863 l 5.0898,6.8778 2.6387,-4.4155 c 1.4513,-2.4285 4.0345,-6.4235 5.7404,-8.8778 4.0781,-5.867 4.4332,-7.1227 2.6073,-9.2184 -1.8926,-2.1723 -1.6984,-2.3426 3.4136,-2.9941 6.748,-0.8599 7.083,0.3925 1.6082,6.0132 -2.7062,2.7784 -7.2296,8.5191 -10.052,12.7571 l -5.1316,7.7056 -0.1515,14.714 c -0.098,9.5525 0.2566,15.4763 1.0116,16.8871 1.1316,2.1145 1.0067,2.1732 -4.6221,2.1741 l -5.7852,8e-4 z m 134.1589,13.8109 c -2.5068,-1.2564 -3.4148,-2.3201 -3.1998,-3.7484 0.1652,-1.0968 0.3527,-2.5137 0.4167,-3.1486 0.1629,-1.6153 3.6353,0.6135 4.3209,2.7734 0.7996,2.5195 10.0949,5.0302 15.7522,4.2547 5.8405,-0.8005 8.71,-3.8887 8.71,-9.3737 0,-5.0429 -2.5962,-8.0632 -12.5863,-14.6426 -8.5855,-5.6543 -13.8634,-10.7798 -15.4807,-15.0336 -2.3166,-6.0932 -0.3692,-13.2623 4.6819,-17.2355 2.7475,-2.1612 7.3851,-2.8446 7.3851,-1.0883 0,0.55 -0.45,1 -1,1 -2.5816,0 -5,4.1184 -5,8.5147 0,5.6702 2.9821,9.1031 14.9738,17.2373 4.6606,3.1614 9.4981,7.277 10.75,9.1459 4.7813,7.1375 1.7871,17.7337 -6.0639,21.4592 -4.8887,2.3199 -18.9387,2.2519 -23.6599,-0.1145 z m 72,1.2664 c 0,-0.326 0.8732,-1.5299 1.9405,-2.6755 1.9572,-2.1008 3.5557,-5.6795 11.0926,-24.8335 2.2724,-5.775 4.7495,-11.85 5.5046,-13.5 1.5256,-3.3337 4.0623,-10.2782 5.5705,-15.25 1.7794,-5.8662 4.0605,-3.5681 9.1817,9.25 7.1761,17.9612 17.8003,42.708 19.3518,45.0759 l 1.5883,2.4241 h -6.8914 -6.8915 l 0.3823,-4.0078 c 0.2708,-2.8402 -0.4418,-5.8992 -2.4461,-10.5 l -2.8283,-6.4922 h -10.5864 c -6.9303,0 -11.1511,0.4317 -12.2215,1.25 -0.8994,0.6875 -2.7619,4.2788 -4.1391,7.9807 -2.2732,6.1106 -2.3595,6.875 -0.9369,8.2976 0.8619,0.8618 1.2828,1.8511 0.9355,2.1985 -0.8369,0.8368 -8.6066,1.5429 -8.6066,0.7822 z m 34,-23.2863 c 0,-1.6042 -7.8049,-21.48 -9.5326,-24.2754 -0.4505,-0.7289 -1.1948,-0.1043 -2.0261,1.7002 -3.2099,6.9678 -9.4413,22.3471 -9.4413,23.3015 0,0.6679 3.8271,1.051 10.5,1.051 9.3949,0 10.5,-0.1871 10.5,-1.7773 z m 157.1662,22.9012 c -1.074,-0.6808 -1.0253,-0.964 0.25,-1.4534 1.393,-0.5345 1.5838,-3.9853 1.5838,-28.6391 0,-18.0209 -0.3571,-28.0314 -1,-28.0314 -0.55,0 -1,-0.4175 -1,-0.9277 0,-0.8252 10.8801,-0.3296 11.8925,0.5416 0.2159,0.1858 -0.1362,0.9748 -0.7823,1.7533 -1.3873,1.6716 -1.1606,53.0089 0.2468,55.8828 0.7621,1.5564 0.2642,1.7483 -4.5,1.7347 -2.9464,-0.01 -5.9572,-0.3958 -6.6908,-0.8608 z m -239.6252,-55.3548 -4.9589,-5.1027 3.4067,0.6814 c 5.3675,1.0735 8.0112,3.2763 8.0112,6.6753 0,1.6373 -0.3375,2.9481 -0.75,2.9128 -0.4125,-0.035 -2.9815,-2.3603 -5.709,-5.1668 z m -338.65,-61.6496 c -24.4198,-6.2979 -43.3112,-33.6177 -41.5965,-60.1546 1.1647,-18.025 12.2367,-36.6999 27.4538,-46.306 5.9986,-3.7868 26.1341,-9.8064 21.464,-6.447 -1.2475,0.8974 -5.404,1.8767 -3.8805,1.3824 1.0075,-0.3269 2.0594,-0.7669 2.3219,-0.7669 0.2625,0 0.1862,-0.2774 -0.1537,-0.8274 -0.9862,-1.5958 17.5086,-1.2003 24.6692,0.5276 3.482,0.8401 9.3213,2.5012 12.9763,3.6912 l 6.6456,2.1638 -0.2669,4.0587 c -0.4117,6.2593 -3.2078,22.7642 -4.33,25.5587 -0.9985,2.4863 -1.0134,2.478 -2.7149,-1.5 -4.7478,-11.1002 -17.9523,-27.1294 -25.3829,-30.8128 -1.872,-0.928 -4.8967,-1.6872 -6.7215,-1.6872 -4.4475,0 -14.1285,4.3819 -18.039,8.1649 -9.5557,9.2442 -13.0348,34.6489 -7.2915,53.2434 4.9086,15.8922 17.5877,27.6701 32.9556,30.6132 9.9475,1.905 18.6103,0.1101 29.4405,-6.0998 4.721,-2.7069 9.0545,-4.9217 9.6302,-4.9217 2.0387,0 -5.2492,11.7431 -10.6941,17.2316 -6.9346,6.99 -14.6942,11.1513 -24.5844,13.1841 -9.4658,1.9456 -13.4157,1.8922 -21.9012,-0.2962 z m 346.609,0.4432 c -6.2287,-2.267 -10.6179,-8.1262 -17.4588,-23.3054 -3.4099,-7.5665 -7.3153,-15.224 -8.6785,-17.0165 -2.8113,-3.6967 -9.0653,-7.2408 -12.7775,-7.2408 -3.4271,0 -3.8292,2.8398 -3.42,24.1561 0.2792,14.5432 0.6254,17.8817 2.0848,20.1062 0.9625,1.467 1.75,2.9082 1.75,3.2025 0,0.2944 -7.65,0.5352 -17,0.5352 -9.35,0 -17,-0.2083 -17,-0.463 0,-0.2546 0.9,-2.7463 2,-5.537 1.8994,-4.8188 2,-7.4321 2,-51.9541 0,-44.7185 -0.093,-47.0961 -2.0077,-51.564 l -2.0078,-4.6839 17.2578,0.5658 c 9.4917,0.3111 22.2077,0.721 28.2577,0.9109 15.6368,0.4907 27.6121,5.0727 36.5081,13.9687 6.5505,6.5505 8.3233,10.8812 7.7476,18.9264 -0.5516,7.7094 -3.3492,12.8841 -10.334,19.1148 -5.6056,5.0003 -15.8776,9.7136 -21.1717,9.7146 -5.4531,10e-4 -5.4619,1.5974 -0.017,3.0636 6.1486,1.6557 13.0613,5.3857 16.6712,8.9955 1.7314,1.7315 5.3343,7.7831 8.0065,13.448 5.208,11.0411 7.1523,12.9386 12.6049,12.3021 l 3.2881,-0.3839 -2.9717,4.3192 c -5.7504,8.3579 -14.9968,11.8528 -23.3323,8.819 z m -21.3681,-53.8599 c 5.5541,-3.3028 9.835,-9.1429 10.9582,-14.9494 1.1465,-5.9266 1.0963,-20.5422 -0.085,-24.7947 -1.327,-4.7768 -5.2207,-9.857 -10.0309,-13.0875 -4.9211,-3.3051 -17.2637,-5.0102 -19.5702,-2.7037 -1.0921,1.0922 -1.518,7.4349 -1.9818,29.5149 -0.5182,24.6709 -0.402,28.2295 0.9467,28.9842 3.0774,1.7223 14.8525,-0.044 19.7631,-2.9638 z m 320.2568,53.8088 c -14.8456,-3.2294 -24.5915,-12.2772 -29.5886,-27.4692 -1.9894,-6.0482 -2.1799,-9.035 -2.5229,-39.5424 -0.3855,-34.3005 -0.8303,-38.0877 -5.0216,-42.7561 -0.8672,-0.9659 -1.3851,-1.9477 -1.151,-2.1818 0.6717,-0.6717 35.819,-0.9718 36.4793,-0.3115 0.3257,0.3257 -0.4599,2.0155 -1.7458,3.7551 l -2.3381,3.1629 v 34.1657 c 0,29.7814 0.2257,34.895 1.7586,39.8493 3.6224,11.707 11.5217,18.4042 22.9683,19.4731 9.709,0.9067 17.022,-1.5436 22.9817,-7.7001 7.5713,-7.8213 8.158,-11.0257 8.2305,-44.9566 l 0.061,-28.5 -2.7027,-5.1233 c -1.4864,-2.8179 -4.8185,-6.9858 -7.4045,-9.2622 -2.5861,-2.2763 -4.5199,-4.2997 -4.2974,-4.4964 0.2226,-0.1967 5.7153,-0.6177 12.206,-0.9356 13.1892,-0.6459 14.481,-0.048 10.8099,4.9989 -1.1275,1.5502 -2.5364,5.5186 -3.1309,8.8186 -0.5945,3.3 -1.4762,8.25 -1.9595,11 -0.4832,2.75 -0.7168,15.8 -0.5191,29 0.4775,31.8793 -0.9187,37.968 -11.0386,48.1406 -6.1559,6.188 -11.4634,9.0394 -20.3192,10.9164 -8.0884,1.7144 -13.7194,1.7027 -21.7553,-0.045 z m -566.0374,-0.7616 c -0.2581,-0.4125 -0.1026,-0.75 0.3456,-0.75 0.4482,0 1.4263,-1.3812 2.1735,-3.0694 1.0778,-2.4348 1.3867,-13.134 1.4941,-51.75 l 0.1355,-48.6806 -2.2585,-3.6318 -2.2585,-3.6318 2.6597,-0.5084 c 1.4628,-0.2797 9.1166,-0.2668 17.0085,0.029 12.7309,0.4765 14.3488,0.7322 14.3488,2.2677 0,0.9519 -0.6829,2.2974 -1.5175,2.9901 -1.2939,1.0739 -1.478,4.811 -1.25,25.3724 l 0.2675,24.1131 21.75,0.2695 21.75,0.2695 v -24.4805 c 0,-23.916 -0.051,-24.5277 -2.1945,-26.5251 -3.9477,-3.6778 -1.294,-4.4833 14.9724,-4.5447 8.0971,-0.031 15.2846,0.1202 15.9721,0.3349 1.7751,0.5544 1.5473,2.7357 -0.5,4.7869 -1.628,1.6312 -1.7286,5.2036 -1.4432,51.2359 0.2928,47.2334 0.3951,49.5948 2.25,51.9529 3.9571,5.0307 3.4322,5.2007 -16.0568,5.2007 -15.019,0 -18,-0.239 -18,-1.4433 0,-0.7938 1.0125,-2.152 2.25,-3.0183 2.2302,-1.5611 2.25,-1.7923 2.25,-26.3067 v -24.732 h -21.5 -21.5 v 24 c 0,23.3443 0.062,24.0869 2.2681,27.1798 1.2475,1.7489 1.8624,3.4305 1.3666,3.737 -1.3481,0.8332 -34.2394,0.2026 -34.7834,-0.6668 z m 132.6487,0.8521 c 0,-0.2189 1.1196,-2.3564 2.488,-4.75 l 2.4879,-4.3521 0.012,-48.2056 0.012,-48.2056 -2.5762,-3.7944 -2.5762,-3.7944 17.2186,-0.2742 c 9.4703,-0.1508 17.45,-0.043 17.7327,0.2398 0.2827,0.2827 -0.2461,2.2061 -1.1752,4.2742 -1.526,3.397 -1.6618,8.6055 -1.4064,53.9266 l 0.2827,50.1665 2.2706,1.9687 c 1.9457,1.687 2.0413,2.0566 0.6682,2.5835 -1.7354,0.6659 -35.4388,0.8723 -35.4388,0.217 z m 172,-0.6207 c 0,-0.3914 0.8489,-1.7908 1.8864,-3.1098 3.4223,-4.3507 7.6561,-12.2405 11.4684,-21.3716 2.0666,-4.95 4.1571,-9.9 4.6454,-11 0.4884,-1.1 4.1214,-10.325 8.0733,-20.5 15.506,-39.9225 21.1531,-53.9265 22.4514,-55.6765 1.2009,-1.6187 1.5169,-1.655 2.8132,-0.3235 0.8032,0.825 8.3098,18.15 16.6813,38.5 21.0892,51.2647 27.7028,66.447 30.6001,70.2456 2.8969,3.7979 2.2294,4.3537 -4.6195,3.8461 -2.475,-0.1834 -10.8973,-0.3916 -18.7163,-0.4626 l -14.2162,-0.1291 2.0878,-3.5387 c 2.6285,-4.455 2.0882,-8.5719 -2.7246,-20.7598 -4.1587,-10.5317 -5.3338,-12.536 -7.8104,-13.322 -1.477,-0.4688 -1.592,-0.779 -0.5318,-1.4342 1.134,-0.7008 1.1361,-1.4515 0.013,-4.6407 -3.0819,-8.7534 -13.5288,-33.3046 -14.1717,-33.3046 -0.3832,0 -0.9244,1.0125 -1.2025,2.25 -0.7731,3.4395 -5.5787,16.2477 -9.7584,26.0085 -2.0628,4.8172 -3.4622,8.9304 -3.1098,9.1405 0.3524,0.21 5.8009,0.4539 12.1079,0.542 6.307,0.088 11.6917,0.3846 11.9661,0.659 0.2744,0.2744 -4.794,0.4256 -11.2632,0.3361 -9.8763,-0.1367 -12.067,0.1131 -13.6643,1.5586 -2.4337,2.2025 -6.0058,13.2045 -6.0058,18.4976 0,4.7271 3.9093,13.1303 7.1712,15.4151 1.2145,0.8506 2.0103,1.7261 1.7685,1.9454 -0.8145,0.7388 -25.9397,1.3476 -25.9397,0.6286 z m 135.6795,0.3647 c -0.3838,-0.3837 0.2011,-1.6545 1.2997,-2.824 3.1034,-3.3033 4.0208,-11.0441 4.0208,-33.9255 v -21.1304 l -13.1093,-22.9831 c -7.2101,-12.6407 -14.6734,-25.1206 -16.5852,-27.7331 l -3.4758,-4.75 h 19.1525 19.1526 l -0.6857,2.25 c -0.3771,1.2375 -1.3074,2.9604 -2.0674,3.8287 -2.034,2.3241 -1.6554,4.6868 1.9122,11.9339 5.0462,10.2504 18.1472,33.9782 18.7634,33.983 0.3066,0 1.9699,-3.0331 3.6963,-6.7456 1.7264,-3.7125 5.8958,-11.925 9.2652,-18.25 5.3225,-9.9911 6.0684,-12.0478 5.685,-15.6754 -0.2427,-2.2965 -1.4067,-5.4027 -2.5866,-6.9027 -1.1798,-1.5 -2.0098,-2.8626 -1.8443,-3.0281 0.6262,-0.6263 19.9068,-1.4008 20.82,-0.8364 0.5262,0.3252 -1.8758,3.6507 -5.3378,7.3899 -6.0423,6.5263 -8.3179,10.3003 -21.9957,36.4793 l -4.7407,9.0734 -0.01,26.6151 c -0.01,25.5868 0.072,26.719 2.1046,29.3027 1.1627,1.4781 1.9281,2.8734 1.701,3.1005 -0.7481,0.7482 -34.4219,1.5415 -35.1355,0.8278 z m -74.1439,-214.4916 c -39.8059,-5.1013 -74.8726,-21.902 -91.7719,-43.9685 -7.1692,-9.3613 -15.3396,-22.9234 -17.5365,-29.1089 -0.9331,-2.6274 -1.9497,-4.7771 -2.2589,-4.7771 -0.3093,0 -2.3087,3.4399 -4.4431,7.6441 -20.1411,39.672 -52.1008,60.1374 -107.5252,68.8538 -23.3711,3.6755 -65.1989,0.5479 -107,-8.0007 -6.325,-1.2935 -16,-3.0777 -21.5,-3.9649 -5.5,-0.8871 -11.125,-2.1023 -12.5,-2.7004 -2.304,-1.0021 -1.7323,-1.3473 7.293,-4.4031 17.0033,-5.7569 19.3597,-7.2289 59.207,-36.9862 18.3718,-13.7197 33.3821,-23.2689 52.8329,-33.6107 8.158,-4.3376 18.418,-9.9208 22.7998,-12.4072 14.6845,-8.3323 26.5128,-13.0912 36.8673,-14.8331 2.112,-0.3553 2.9704,-0.2476 2.1646,0.2716 -0.7345,0.4733 -1.2949,1.2601 -1.2453,1.7486 0.05,0.4885 -1.3745,1.2555 -3.1646,1.7043 -4.0435,1.014 -27.0052,12.1212 -35.7547,17.2956 -15.037,8.8927 -23.1193,15.3795 -52.4134,42.0667 -16.4423,14.9791 -28.5608,23.7901 -40.4002,29.3738 -3.9525,1.8641 -7.1864,3.6585 -7.1864,3.9875 0,0.6194 8.1174,2.0254 38,6.5822 14.844,2.2636 20.9149,2.6799 40,2.743 20.1607,0.067 23.4357,-0.1597 31.5,-2.1776 34.3514,-8.5958 61.6175,-25.197 76.6801,-46.6873 8.0305,-11.4574 17.6906,-32.9219 23.1775,-51.5 2.2266,-7.5393 3.0677,-8.7218 5.0397,-7.0852 0.8524,0.7074 1.8447,2.9285 2.2051,4.9357 6.2088,34.5792 20.6735,60.1946 43.6168,77.2404 17.6173,13.0888 37.455,21.388 59.7571,24.9994 10.8213,1.7524 46.9377,1.1516 67.8706,-1.129 18.0878,-1.9707 33.3774,-4.3638 35.242,-5.5162 1.5645,-0.9669 0.9973,-2.4451 -0.9382,-2.4451 -2.2155,0 -13.1564,-5.6674 -22.1507,-11.4742 -7.1531,-4.6181 -8.6118,-5.8436 -34.5738,-29.0479 -19.8542,-17.7453 -30.4031,-26.0753 -42.7059,-33.7228 -12.0696,-7.5026 -34.3342,-17.9573 -39.4768,-18.5369 -2.921,-0.3292 -3.96,-0.7825 -3.0769,-1.3423 10.1224,-6.4166 75.5163,27.8073 124.2696,65.0366 5.4649,4.1731 14.8573,11.3387 20.872,15.9235 12.4177,9.4655 19.7411,13.7216 31.1215,18.0862 11.7537,4.5078 11.5321,5.2334 -2.2274,7.2938 -36.6165,5.4829 -46.8466,6.6272 -87.5585,9.794 -14.5966,1.1354 -33.5691,1.067 -43.1082,-0.1555 z m -11.6574,-18.3277 c -22.3307,-3.2481 -36.8697,-10.8674 -56.2418,-29.474 -6.9041,-6.6312 -18.8099,-20.7636 -21.1059,-25.0528 -0.4416,-0.825 2.7459,1.9129 7.0833,6.0842 26.4003,25.3894 45.55,33.8714 81.947,36.2971 10.5266,0.7016 10.8931,-0.072 3.6841,-7.7786 -3.3697,-3.6023 -9.9641,-12.074 -14.6543,-18.8261 -10.4445,-15.0365 -21.2575,-27.7123 -28.873,-33.8476 -7.1335,-5.7468 -23.8658,-14.9036 -33.4518,-18.3065 -3.9788,-1.4125 -9.3788,-3.6844 -12,-5.0487 -4.3508,-2.2646 -4.5229,-2.4847 -1.9764,-2.5272 13.056,-0.2179 32.9644,4.3195 48.0314,10.9472 17.9214,7.8833 28.5328,16.2844 63.1792,50.0198 13.7129,13.3524 22.2372,21.002 33.7364,30.275 l 5.7364,4.6259 -3.2364,0.5407 c -20.4075,3.4094 -55.6713,4.4261 -71.8582,2.0716 z m -238.8782,-0.214 c -7.6671,-0.8042 -33.6069,-4.4248 -35.2502,-4.9201 -1.3517,-0.4075 -0.5792,-1.3157 3.3925,-3.9884 12.8991,-8.6805 23.7463,-18.1035 41.3577,-35.9273 27.1014,-27.4284 34.8669,-33.2891 55.0941,-41.5801 20.8771,-8.5573 40.0627,-12.6529 46.8395,-9.9991 2.5065,0.9815 1.5376,1.5421 -8.1062,4.6901 -9.273,3.027 -22.0093,9.1228 -30.6076,14.6492 -15.8733,10.2023 -27.3241,22.0861 -40.7233,42.2629 -4.0177,6.05 -8.6303,12.6963 -10.2502,14.7695 -5.12,6.5528 -4.07,7.0537 13.5188,6.4496 15.4048,-0.5292 15.9584,-0.6381 31.7349,-6.2413 7.7307,-2.7456 18.6518,-8.4835 26.3326,-13.8348 8.9162,-6.212 15.6619,-12.1868 15.6827,-13.8904 0.011,-0.8844 0.2792,-0.8357 0.9129,0.1655 1.2258,1.9365 -0.8835,5.136 -8.8507,13.4253 -22.9494,23.877 -49.5625,34.88 -83.438,34.4966 -7.7767,-0.088 -15.7145,-0.3253 -17.6395,-0.5272 z m 346.4586,-30.1614 c -5.4371,-0.9827 -9.4059,-3.5354 -26.588,-17.1011 -8.0461,-6.3527 -15.4711,-12.0863 -16.5,-12.7415 -1.722,-1.0966 -1.6621,-1.1959 0.7537,-1.25 1.4433,-0.032 4.399,0.5674 6.5682,1.3327 6.7304,2.3746 22.0984,3.9189 39.3075,3.9498 25.4708,0.046 38.9112,-2.0425 70.2741,-10.9189 10.5375,-2.9823 19.6147,-5.4224 20.1716,-5.4224 1.9336,0 -16.9851,18.1002 -23.9457,22.9097 -12.6845,8.7645 -25.9675,14.6357 -40,17.6802 -8.1788,1.7745 -24.2431,2.6095 -30.0414,1.5615 z m -447.9586,-1.2504 c -15.9372,-2.2715 -29.9879,-7.8872 -46,-18.3852 -8.8425,-5.7973 -15.0108,-11.4274 -21.4788,-19.6046 -5.2258,-6.6067 -4.0416,-7.333 5.6375,-3.4582 15.9949,6.4032 41.4075,13.618 56.9112,16.1575 19.2157,3.1475 60.4422,1.2901 71.3022,-3.2124 1.8547,-0.769 4.1047,-1.3716 5,-1.3393 1.3934,0.05 1.3622,0.2304 -0.2163,1.25 -1.0143,0.6552 -3.2643,2.4534 -5,3.9962 -7.6488,6.7986 -23.4581,19.5038 -26.6558,21.4221 -6.6075,3.9638 -24.0973,5.3691 -39.5,3.1739 z m 403.4519,-45.9287 c -11.7289,-0.6449 -13.1807,-0.9603 -22.2407,-4.8311 -5.331,-2.2777 -10.7359,-4.1412 -12.0109,-4.1412 -1.2749,0 -3.1021,-0.5733 -4.0603,-1.274 -1.4222,-1.0399 0.242,-1.0965 9.0588,-0.3078 5.9407,0.5314 24.5262,0.9722 41.3012,0.9794 28.8132,0.013 31.3115,-0.1353 45.1728,-2.6713 24.6505,-4.51 39.6393,-10.0587 55.5506,-20.5645 29.488,-19.4702 47.3758,-48.8467 59.7386,-98.1066 2.7679,-11.0292 7.796,-42.8288 6.9805,-44.1482 -0.3026,-0.4896 -3.2434,1.3511 -6.5352,4.0905 -14.0781,11.7159 -27.3163,18.862 -47.2591,25.5107 -15.4277,5.1434 -26.2672,7.9246 -36.6482,9.4032 -26.5352,3.7793 -25.9824,3.878 -19.0909,-3.4088 10.4786,-11.0796 17.2192,-24.1639 20.6402,-40.0649 2.2305,-10.368 2.4883,-35.7045 0.482,-47.3679 -1.1262,-6.5469 -1.178,-8.5209 -0.2319,-8.8362 0.67,-0.2234 6.969,-6.1048 13.9976,-13.0698 7.0287,-6.9651 15.2372,-14.3684 18.2412,-16.4518 3.004,-2.0834 7.7104,-5.3459 10.4586,-7.25 4.6742,-3.2384 4.8187,-3.462 2.2382,-3.462 -4.5116,0 -33.1964,7.6484 -39.9663,10.6564 -16.2334,7.213 -29.1368,15.9527 -51.2646,34.7226 -20.825,17.6649 -19.8561,16.3466 -24.7091,33.621 -1.6224,5.775 -3.5249,12.525 -4.2278,15 -4.3394,15.2799 -12.2294,29.3755 -21.561,38.519 -6.4655,6.3352 -11.3471,10.481 -12.3411,10.481 -0.2857,0 2.1166,-5.2155 5.3386,-11.59 15.1408,-29.9557 24.5111,-64.2195 25.6864,-93.9263 0.7788,-19.6838 -0.2767,-31.3458 -7.6917,-84.98366 -1.0645,-7.7 -2.4383,-18.05 -3.0529,-23 -0.6146,-4.95 -1.5,-9.39868 -1.9674,-9.88595 -0.482,-0.5024 -5.7481,3.67329 -12.164,9.64537 -6.2228,5.79222 -15.0942,13.6159 -19.7143,17.38595 -33.7554,27.54476 -47.0998,40.16358 -47.0998,44.53895 0,1.35267 0.6213,4.45204 1.3807,6.88754 5.8444,18.7443 9.3458,34.8391 11.6867,53.72 5.0033,40.3544 -0.5027,71.2095 -19.0417,106.7081 -8.2051,15.7113 -15.0257,27.4058 -15.0257,25.763 0,-0.663 1.3624,-4.9308 3.0275,-9.4842 3.6973,-10.11 11.1537,-38.5094 13.8574,-52.7788 6.2752,-33.118 4.6833,-75.8017 -4.0442,-108.4383 -2.884,-10.785 -10.5484,-29.95332 -18.8175,-47.06166 -11.7382,-24.28569 -48.6141,-85.5 -51.5058,-85.5 -0.7276,0 -5.129,4.1625 -9.7809,9.25 -4.6519,5.0875 -9.9136,10.825 -11.6926,12.75 -1.779,1.925 -5.7792,6.65 -8.8892,10.5 -3.1101,3.85 -6.2104,7.58784 -6.8896,8.30631 -0.6792,0.71848 -3.1773,3.86848 -5.5513,7 -19.8389,26.16891 -39.8401,66.37166 -46.6134,93.69365 -4.6552,18.7784 -5.39,25.9643 -5.4705,53.5 -0.094,32.1845 1.2579,42.3857 10.3827,78.3394 2.0714,8.1616 3.4113,14.4616 2.9776,14 -1.9177,-2.0415 -12.0801,-23.6494 -14.8897,-31.6593 -7.8311,-22.3261 -10.0588,-36.4603 -10.0826,-63.9695 -0.04,-45.8071 6.4946,-74.5861 24.3414,-107.21056 17.3841,-31.77856 25.0184,-43.09752 46.3281,-68.68846 16.2306,-19.49132 17.6254,-21.34587 21.7316,-28.89449 3.2511,-5.97661 4.2968,-9.61516 6.1046,-21.24046 0.7087,-4.55756 2.2893,-3.84823 4.3939,1.97183 1.5968,4.4159 5.2315,10.27691 17.6855,28.51837 5.0066,7.33327 13.297,20.53321 18.423,29.33321 5.126,8.8 12.0964,20.725 15.4897,26.5 3.3933,5.775 9.6807,17.025 13.972,25 4.2913,7.975 7.9408,14.66622 8.1101,14.86938 0.1692,0.20315 4.8146,-3.79961 10.3232,-8.89504 5.5086,-5.09543 17.6538,-15.2033 26.9893,-22.46193 34.0875,-26.50402 46.4818,-38.49646 55.5227,-53.72241 5.601,-9.43267 8.567,-13.23115 8.567,-10.97146 0,0.58488 -0.515,1.38169 -1.1444,1.77068 -0.8338,0.51532 -0.9835,6.97673 -0.5516,23.80902 0.6697,26.09615 1.3142,32.5391 6.2123,62.10176 4.0851,24.65542 6.5047,44.45586 6.9655,56.99996 0.1818,4.95 0.3728,9.1649 0.4244,9.3664 0.052,0.2015 1.7813,-1.1581 3.8438,-3.0213 10.8339,-9.7871 31.3235,-21.4909 46.75,-26.7041 11.0407,-3.731 30.4641,-7.74279 44.5,-9.19119 15.1387,-1.56219 22.8411,-3.50099 27.8598,-7.01273 2.398,-1.67787 4.5481,-2.86252 4.778,-2.63255 0.23,0.22997 -0.069,1.69979 -0.6647,3.26626 -0.5956,1.56648 -2.8635,11.41641 -5.0399,21.88871 -5.398,25.9739 -9.5632,43.2383 -13.1586,54.5405 -3.3786,10.6209 -12.7667,31.1893 -20.005,43.8289 -2.6233,4.5809 -4.7696,8.7434 -4.7696,9.25 0,1.4827 -1.6672,1.9173 23.5,-6.1252 26.4449,-8.4507 49.5097,-24.6599 56.6113,-39.7844 1.3138,-2.798 2.7262,-5.1057 3.1387,-5.1283 1.3396,-0.073 0.8012,30.2918 -0.701,39.5328 -4.7952,29.4988 -5.899,35.7524 -7.6651,43.4262 -8.5028,36.9461 -24.6016,70.2441 -42.9791,88.8959 -8.1637,8.2856 -19.9094,17.3311 -29.3868,22.6312 -8.5317,4.7712 -25.8713,11.2023 -36.3945,13.4984 -15.0798,3.2904 -52.6772,5.2385 -76.1716,3.9468 z m -388.812,-1.0013 c -26.8828,-2.7544 -47.5047,-10.4724 -67.4041,-25.2269 -26.8447,-19.9042 -46.469,-52.7681 -56.1406,-94.0165 -6.5478,-27.9254 -8.4889,-43.2451 -9.2153,-72.7276 l -0.5543,-22.5 4.1074,6.6912 c 2.259,3.6802 5.8283,8.4294 7.9317,10.5539 10.8764,10.9857 28.3346,21.1239 48.4509,28.1362 12.0699,4.2074 15.6844,4.9174 15.6844,3.0812 0,-0.5707 -2.9682,-7.6582 -6.596,-15.75 -12.5779,-28.055 -19.1822,-43.7472 -21.3429,-50.7125 -1.1943,-3.85 -4.1689,-18.925 -6.6102,-33.5 -2.4413,-14.57499 -4.9067,-27.56718 -5.4788,-28.87156 l -1.04,-2.3716 4.2839,2.66696 c 7.9889,4.97344 12.7149,6.64592 27.0134,9.5597 43.0818,8.7793 71.8527,22.334 93.6299,44.1112 2.148,2.1479 4.1833,3.9053 4.5231,3.9053 0.3397,0 0.6176,-4.9677 0.6176,-11.0394 0,-19.5802 3.3471,-43.19329 10.5888,-74.70163 8.6657,-37.70388 10.4094,-47.04196 10.4653,-56.04388 l 0.054,-8.71505 3.696,4.41021 c 25.103,29.95441 42.8204,47.20115 75.4459,73.44158 5.3625,4.31302 9.75,8.01046 9.75,8.21652 0,1.34619 -5.0486,11.43169 -5.7225,11.43169 -4.447,0 -51.6602,-41.08261 -68.0915,-59.25 -4.7831,-5.28844 -6.186,-5.84616 -6.186,-2.45923 0,1.25993 -1.9763,9.69743 -4.3918,18.75 -9.6596,36.20199 -12.1521,55.30699 -11.3363,86.89429 0.5862,22.6971 2.3772,35.2679 8.2037,57.5813 5.5227,21.15 11.51,35.7566 19.4638,47.4836 3.1908,4.7046 3.8288,7 1.9458,7 -0.6132,0 -4.5837,-3.3757 -8.8234,-7.5015 -5.374,-5.2297 -9.2081,-10.151 -12.6599,-16.25 -5.8598,-10.3536 -6.7797,-12.4547 -13.4621,-30.7485 -2.8127,-7.7 -6.2675,-15.6968 -7.6772,-17.7707 -10.6352,-15.645 -59.2189,-49.257 -93.3054,-64.5521 -7.4939,-3.3626 -18.2332,-7.2345 -18.7189,-6.7488 -0.2499,0.2499 6.1951,7.9249 14.3224,17.0555 16.547,18.5899 22.8211,26.3722 25.4084,31.5161 1.1797,2.3453 2.1476,8.1188 2.9339,17.5 2.0481,24.4352 8.459,47.7091 16.4524,59.7276 2.0951,3.1502 6.5848,8.48 9.977,11.844 l 6.1676,6.1164 -9.5,-0.6678 c -14.7088,-1.034 -20.7333,-2.1884 -37.0389,-7.0969 -28.1126,-8.463 -53.7929,-19.8702 -62.6408,-27.8252 -2.8128,-2.5289 -5.4131,-4.5981 -5.7785,-4.5981 -0.3654,0 -0.4054,1.9125 -0.089,4.25 3.2379,23.9155 5.8757,40.9069 7.1478,46.0424 5.1999,20.9935 15.089,44.6614 24.9674,59.755 10.0317,15.328 28.8505,31.6545 46.9319,40.7166 8.225,4.1222 29.3686,10.7525 42.162,13.2214 22.5804,4.3575 59.7813,4.9907 82.4333,1.403 5.3209,-0.8428 11.1836,-1.3874 13.0283,-1.2103 2.934,0.2816 2.1661,0.7392 -6.1349,3.6554 -19.1344,6.7222 -16.9054,6.4311 -51.4887,6.7235 -17.6,0.1488 -35.7621,-0.1149 -40.3601,-0.586 z m 201.6726,-18.6541 c 0.7219,-0.2888 1.5844,-0.2533 1.9167,0.079 0.3323,0.3323 -0.2584,0.5687 -1.3125,0.5252 -1.165,-0.048 -1.4019,-0.2849 -0.6042,-0.6041 z m -181.8125,-2.4492 c -60.1017,-4.8885 -97.9398,-35.7158 -115.8287,-94.3677 -3.8675,-12.68 -6.9067,-28.0979 -5.7641,-29.2405 0.3135,-0.3135 6.046,2.0206 12.7389,5.1869 14.0453,6.6446 32.2134,12.8478 45.8539,15.6561 5.225,1.0757 18.725,2.8487 30,3.9399 50.7179,4.9087 69.1033,9.6409 107.1256,27.573 21.4007,10.0929 30.6402,15.7053 45.0331,27.3545 17.011,13.7682 24.8688,19.3492 33.0459,23.4709 l 6.7046,3.3794 -9.7046,0.6142 c -30.4269,1.9259 -47.2926,4.317 -77.2046,10.9455 -28.2056,6.2505 -45.9736,7.6047 -72,5.4878 z m 374.5,-0.3633 c -1.1,-0.2011 -6.95,-0.8917 -13,-1.5345 -6.05,-0.6429 -21.8,-3.3323 -35,-5.9766 -35.2505,-7.0614 -45.8869,-8.8148 -56.8571,-9.3728 -5.4215,-0.2758 -10.109,-0.7532 -10.4167,-1.0609 -0.3078,-0.3078 -0.027,-0.5596 0.625,-0.5596 1.4707,0 22.864,-16.1988 37.866,-28.6717 14.2123,-11.8164 22.9031,-17.4278 36.1998,-23.3734 27.4361,-12.2679 49.7487,-17.884 85.083,-21.4152 25.7318,-2.5715 32.7118,-3.5087 45.8844,-6.1609 23.2892,-4.6889 41.244,-10.192 56.4514,-17.302 10.593,-4.9526 11.6642,-5.2739 11.6642,-3.4981 0,3.5534 -8.4082,32.7033 -12.0583,41.8042 -7.2649,18.1138 -17.7453,33.2368 -30.3976,43.8632 -14.3409,12.0444 -24.8175,17.7358 -44.5441,24.1981 -21.0214,6.8865 -30.6611,8.5772 -51.5,9.0326 -9.9,0.2163 -18.9,0.2287 -20,0.028 z m -237.75,-1.1666 c 0.6875,-0.2775 1.8125,-0.2775 2.5,0 0.6875,0.2774 0.125,0.5043 -1.25,0.5043 -1.375,0 -1.9375,-0.2269 -1.25,-0.5043 z m 50.3418,-26.0878 c -21.1878,-14.3708 -40.4472,-44.0506 -53.3726,-82.25 -8.0999,-23.9382 -11.8387,-57.3899 -9.7017,-86.8038 2.2954,-31.5943 7.85,-49.3094 27.7953,-88.64694 9.3474,-18.43549 17.0472,-30.77947 26.6592,-42.73886 8.5628,-10.65388 26.7552,-30.81036 27.8082,-30.81036 0.4775,0 3.5869,2.5875 6.9097,5.75 10.2307,9.73722 24.8665,33.38429 42.5511,68.75 18.3625,36.72116 27.3297,74.61426 25.9126,109.49996 -1.3028,32.0745 -10.4272,73.9316 -20.6,94.5 -5.4604,11.0404 -17.3535,30.5 -18.6406,30.5 -0.7269,0 0.1457,-2.8778 3.7901,-12.5 8.6684,-22.8865 13.7912,-49.6977 13.7949,-72.1987 0.01,-43.3865 -14.415,-82.8711 -47.0965,-128.94018 -4.4328,-6.24859 -8.5369,-11.36108 -9.1203,-11.36108 -1.236,0 -0.6706,-0.6721 -12.4178,14.76007 -11.0251,14.48359 -15.971,22.77279 -23.413,39.23989 -17.8821,39.5684 -23.983,71.6896 -19.4219,102.2566 2.0675,13.8557 4.5837,22.5181 11.6898,40.2434 9.0556,22.5883 16.6851,36.3455 25.0781,45.2199 2.7466,2.9041 4.5909,5.2831 4.0987,5.2867 -0.4923,0 0.4549,0.9007 2.1049,1.9934 1.65,1.0928 2.55,1.9714 2,1.9525 -0.55,-0.019 -3.4337,-1.685 -6.4082,-3.7025 z m 56.4082,-0.7861 c 1.65,-0.7555 3.9,-1.378 5,-1.3833 1.7636,-0.01 1.7045,0.1592 -0.5,1.4194 -1.375,0.7861 -3.625,1.4086 -5,1.3834 -2.4376,-0.045 -2.4251,-0.08 0.5,-1.4195 z m 7.75,-2.7139 c 0.1375,-0.6875 1.15,-1.9 2.25,-2.6946 9.9187,-7.1644 22.6708,-18.559 27.326,-24.417 8.7781,-11.0464 31.038,-41.7577 37.3209,-51.4906 8.3344,-12.9108 14.0393,-23.5891 19.6802,-36.8368 15.1485,-35.5768 17.19,-61.5619 7.6821,-97.7817 -1.4396,-5.484 -2.7409,-10.0943 -2.8918,-10.2452 -0.151,-0.1509 -2.4793,3.2062 -5.1742,7.4603 -2.6949,4.2541 -7.5559,10.8895 -10.8023,14.7452 -6.6091,7.8496 -19.6637,20.821 -20.3071,20.1776 -0.23,-0.2301 -1.4814,-5.5368 -2.7809,-11.7927 -1.2994,-6.256 -3.3051,-13.8495 -4.4572,-16.8745 -1.1521,-3.025 -2.0949,-6.1389 -2.0952,-6.9198 -8e-4,-2.1481 25.6677,-27.7213 41.4995,-41.34563 7.7,-6.62636 16.4906,-14.45491 19.5346,-17.39679 l 5.5346,-5.34887 1.7023,8.75557 c 3.5511,18.26561 4.752,53.69972 2.6756,78.95112 -1.4299,17.39 -5.3577,42.4328 -9.0058,57.4193 -7.6689,31.5034 -17.1528,48.7906 -41.1882,75.0771 -6.4608,7.0659 -15.0678,17.0008 -19.1267,22.0776 -14.122,17.6632 -23.2657,26.0994 -37.6737,34.7589 -8.6859,5.2203 -10.1118,5.7673 -9.7027,3.7215 z m -100.8286,-3.9046 c -2.7067,-1.7351 -10.0964,-8.582 -16.4214,-15.2155 -6.325,-6.6334 -19.4302,-19.9513 -29.1227,-29.5953 -37.2821,-37.0956 -53.6361,-66.8144 -61.3577,-111.501 -3.8765,-22.4339 -4.9284,-66.8593 -2.0872,-88.15143 1.7023,-12.75699 4.3796,-25.4538 5.6535,-26.81105 0.5191,-0.55296 5.2313,3.2997 11.643,9.5191 11.4968,11.15198 23.8108,21.74352 36.7711,31.62765 4.4,3.35565 9.5282,7.40343 11.3959,8.99513 l 3.3959,2.894 -2.2039,8.9465 c -1.2122,4.9206 -2.6052,10.2965 -3.0956,11.9465 -0.4904,1.65 -1.4293,6.9143 -2.0863,11.6984 -0.7414,5.3984 -1.7001,8.8924 -2.527,9.2097 -1.8728,0.7186 -20.7116,-18.9875 -30.3277,-31.7239 -2.8341,-3.7537 -4.2372,-6.7612 -4.6877,-10.0477 -0.3536,-2.5798 -0.8786,-4.4548 -1.1668,-4.1666 -1.248,1.248 -4.2698,11.4977 -6.297,21.359 -2.7892,13.5683 -3.0097,42.8434 -0.4192,55.6711 4.6012,22.7848 18.1391,49.6297 38.1443,75.6382 15.8949,20.6649 42.713,53.0785 49.6786,60.0441 4.2997,4.2998 7.2279,7.8544 6.5071,7.8993 -0.7208,0.045 0.1725,0.7296 1.9851,1.5215 1.8127,0.792 3.0236,1.8803 2.691,2.4185 -0.7999,1.2942 -0.462,1.4155 -6.0653,-2.1762 z m 212.8459,-77.1948 c 8.421,-5.1477 15.9233,-11.8814 23.4566,-21.0534 3.6577,-4.4534 11.4178,-13.0472 17.2446,-19.0972 15.4873,-16.0805 29.7814,-33.8867 35.9317,-44.7601 1.792,-3.168 3.6341,-5.5277 4.0936,-5.2437 0.4594,0.284 1.0897,-0.049 1.4004,-0.7399 0.3108,-0.691 0.3055,3.2437 -0.012,8.7437 -0.7219,12.5161 -3.4129,26.8782 -7.3756,39.3645 -3.4475,10.8629 -16.1815,37.0122 -20.0478,41.1681 l -2.5408,2.7312 -22.9592,0.6494 c -12.6275,0.3571 -25.6591,0.8999 -28.9591,1.2061 l -6,0.5568 z m -347.2673,-2.587 c -15.8887,-0.6939 -19.1742,-1.9098 -28.8719,-10.6858 -17.471,-15.8103 -26.2204,-37.6468 -26.0578,-65.0348 0.039,-6.5137 0.4227,-12.743 0.8535,-13.843 0.6753,-1.7246 1.1415,-1.2937 3.386,3.1307 5.2402,10.329 23.1426,31.7481 40.8456,48.8693 5.687,5.5 15.563,15.2421 21.9467,21.6491 6.3838,6.407 13.1319,12.4377 14.9958,13.4015 6.4085,3.314 1.5541,3.7642 -27.0979,2.513 z"
       id="path1"
       sodipodi:nodetypes="sssscccccccssscssssssscssssssscssssssccssssssscsssscccsssscssssscssssssccsscsssssssssssssssssssssssscccsscsssssssssssssssssssscsscssssssssssssscssssssssssssssssssssssssccsssssssssscssssssssssssssssssscssssscsssssssssssssssscccscssscccsccsssssssscccsssssscccccsssscssssssssssssssscsssscssssssssssssscsscsscccssscsssssssscsssccsssssssssssssssssssssssssssssssssssssssssssssssssssssssssscssssssssssssssssssssssssssssssssssssssssssssssscssssssssssssssssssssssssssssssssssssssssssssssssssssssssssssssssssssssssssssssssssssssssssscsssssssscssssssscsssssssssssssscssssssscsssscsssssssssssssssssssssssscssssssssssssssssssssssssssssssssssssscsssssssssssscsssssssssssssssssscsssssssssssssssscssssssssssssssssssssscsscsscssssssssss"
       inkscape:export-filename="path1.png"
       inkscape:export-xdpi="336.57544"
       inkscape:export-ydpi="336.57544" />
  </g>
</svg>
